<svg width="1697" height="500" viewBox="0 0 1697 500" fill="none" xmlns="http://www.w3.org/2000/svg">
<path d="M229.074 0H152.25C68.155 0 0 64.6528 0 144.429C0 191.86 16.3596 235.668 44.0051 271.063C57.6281 255.285 78.3422 245.209 101.513 245.209C101.513 245.209 101.553 283.653 101.573 321.047C136.889 343 179.077 357.372 224.46 357.372H250.507C266.607 357.372 279.671 344.98 279.671 329.717V50.1425C279.671 22.4483 257.019 0 229.074 0Z" fill="#5929AE"/>
<path d="M35.9751 157.772C35.9751 77.9951 104.13 13.3423 188.225 13.3423H263.371C254.343 5.0875 242.318 0 229.074 0H152.25C68.1549 0 0 64.6528 0 144.429C0 191.86 16.3596 235.668 44.0051 271.063C48.9589 265.342 54.8515 260.373 61.4433 256.354C45.1836 226.879 35.9751 193.345 35.9751 157.772Z" fill="#6C44C7"/>
<path d="M472.211 0H549.035C633.11 0 701.285 64.6528 701.285 144.429C701.285 191.86 684.926 235.668 657.28 271.063C643.657 255.285 622.943 245.209 599.772 245.209C599.772 245.209 599.732 283.653 599.712 321.047C564.396 343 522.209 357.372 476.825 357.372H450.778C434.678 357.372 421.614 344.98 421.614 329.717V50.1425C421.614 22.4483 444.266 0 472.211 0Z" fill="#5929AE"/>
<path d="M665.31 157.772C665.31 78.0149 597.155 13.3423 513.06 13.3423H437.914C446.943 5.0875 458.968 0 472.211 0H549.035C633.11 0 701.285 64.6528 701.285 144.429C701.285 191.86 684.926 235.668 657.28 271.063C652.326 265.342 646.434 260.373 639.842 256.354C656.102 226.879 665.31 193.345 665.31 157.772Z" fill="#6C44C7"/>
<path d="M356.016 357.649C431.002 357.649 491.786 297.411 491.786 223.097V124.931C491.786 61.9208 440.251 10.8479 376.67 10.8479H326.453C262.872 10.8479 211.336 61.9208 211.336 124.931V223.097C211.336 297.411 272.121 357.649 347.107 357.649H356.016Z" fill="#9F96F9"/>
<path d="M553.609 337.735C508.465 337.735 468.994 313.802 447.321 278.07C447.321 278.07 440.869 312.772 421.733 341.595C421.693 341.654 421.653 341.694 421.614 341.753C444.305 367.092 477.404 383.067 514.278 383.067C531.137 383.067 547.217 379.721 561.858 373.684C581.134 365.726 575.302 337.596 554.408 337.735C554.148 337.735 553.868 337.735 553.609 337.735Z" fill="#BAECFF"/>
<path d="M567.971 363.132C553.329 369.19 537.249 372.516 520.39 372.516C483.596 372.516 450.577 356.6 427.886 331.36C425.988 334.805 423.951 338.229 421.733 341.575C421.693 341.634 421.653 341.674 421.614 341.733C444.305 367.072 477.404 383.047 514.278 383.047C531.137 383.047 547.217 379.701 561.858 373.664C568.63 370.873 572.285 365.587 573.304 359.906C571.806 361.153 570.048 362.261 567.991 363.113L567.971 363.132Z" fill="#B3E1F0"/>
<path d="M147.675 337.735C192.819 337.735 232.29 313.802 253.963 278.07C253.963 278.07 260.415 312.772 279.551 341.595C279.591 341.654 279.631 341.694 279.671 341.753C256.979 367.092 223.88 383.067 187.006 383.067C170.147 383.067 154.068 379.721 139.426 373.684C120.15 365.726 125.983 337.596 146.876 337.735C147.136 337.735 147.416 337.735 147.675 337.735Z" fill="#BAECFF"/>
<path d="M133.293 363.132C147.935 369.19 164.015 372.516 180.874 372.516C217.668 372.516 250.687 356.6 273.378 331.36C275.276 334.805 277.314 338.229 279.531 341.575C279.571 341.634 279.611 341.674 279.651 341.733C256.959 367.072 223.86 383.047 186.986 383.047C170.127 383.047 154.047 379.701 139.406 373.664C132.634 370.873 128.979 365.587 127.96 359.906C129.458 361.153 131.216 362.261 133.273 363.113L133.293 363.132Z" fill="#B3E1F0"/>
<path d="M567.372 393.479C567.372 393.479 567.452 393.499 567.432 393.519C558.363 397.26 548.995 400.012 539.427 401.793C534.133 402.783 529.499 405.851 526.603 410.345C516.156 426.498 497.639 437.049 476.685 436.357C445.743 435.307 421.693 409.118 421.693 378.454L421.833 347.236C443.466 321.304 453.773 276.091 453.773 276.091C420.155 263.223 422.073 233.55 422.013 227.69L422.113 176.142C422.113 146.369 446.463 122.238 476.505 122.238H491.626C490.168 60.4955 439.232 10.8677 376.59 10.8677H326.392C263.731 10.8677 212.814 60.4757 211.356 122.238H226.477C256.52 122.238 280.869 146.369 280.869 176.142L280.969 227.69C280.909 233.53 282.827 263.223 249.209 276.091C249.209 276.091 259.516 321.304 281.149 347.236C292.395 432.556 365.464 498.634 454.313 500C512.5 498.832 560.92 455.756 573.484 398.25C574.223 394.865 570.588 392.173 567.372 393.519V393.479Z" fill="#8569F0"/>
<path d="M481.719 162.028H481.759C481.759 162.028 481.639 161.968 481.579 161.948C481.04 161.652 480.46 161.414 479.841 161.236C457.17 152.229 440.49 158.742 433 163.057C431.522 163.789 430.143 164.72 428.905 165.789C428.705 165.947 428.605 166.026 428.605 166.026H428.645C424.65 169.609 422.113 174.776 422.113 180.537V219.376C422.113 223.513 425.489 226.859 429.664 226.859H447.362C468.415 226.859 485.494 209.933 485.494 189.069V168.402C485.494 165.65 483.996 163.295 481.759 161.988L481.719 162.028Z" fill="#5929AE"/>
<path d="M221.204 162.028H221.164C221.164 162.028 221.283 161.968 221.343 161.948C221.883 161.652 222.462 161.414 223.081 161.236C245.753 152.229 262.432 158.742 269.923 163.057C271.401 163.789 272.779 164.72 274.018 165.789C274.217 165.947 274.317 166.026 274.317 166.026H274.277C278.272 169.609 280.809 174.776 280.809 180.537V216.882C280.809 222.385 276.295 226.859 270.742 226.859H255.561C234.507 226.859 217.428 209.933 217.428 189.069V168.402C217.428 165.65 218.926 163.295 221.164 161.988L221.204 162.028Z" fill="#5929AE"/>
<path d="M446.463 216.189C459.933 216.189 470.852 205.367 470.852 192.018C470.852 178.669 459.933 167.848 446.463 167.848C432.993 167.848 422.073 178.669 422.073 192.018C422.073 205.367 432.993 216.189 446.463 216.189Z" fill="white"/>
<path d="M440.39 210.171C450.507 210.171 458.708 202.044 458.708 192.018C458.708 181.993 450.507 173.865 440.39 173.865C430.274 173.865 422.073 181.993 422.073 192.018C422.073 202.044 430.274 210.171 440.39 210.171Z" fill="#47208A"/>
<path d="M454.107 183.303C455.744 181.366 454.808 177.919 452.017 175.602C449.226 173.286 445.637 172.977 444.001 174.913C442.364 176.849 443.3 180.297 446.091 182.613C448.882 184.93 452.471 185.239 454.107 183.303Z" fill="white"/>
<path d="M451.916 238.261C468.398 238.261 481.759 231.295 481.759 222.701C481.759 214.108 468.398 207.142 451.916 207.142C435.434 207.142 422.073 214.108 422.073 222.701C422.073 231.295 435.434 238.261 451.916 238.261Z" fill="#9F96F9"/>
<path d="M256.46 216.189C269.93 216.189 280.85 205.367 280.85 192.018C280.85 178.669 269.93 167.848 256.46 167.848C242.99 167.848 232.071 178.669 232.071 192.018C232.071 205.367 242.99 216.189 256.46 216.189Z" fill="white"/>
<path d="M262.532 210.171C272.648 210.171 280.849 202.044 280.849 192.018C280.849 181.993 272.648 173.865 262.532 173.865C252.416 173.865 244.215 181.993 244.215 192.018C244.215 202.044 252.416 210.171 262.532 210.171Z" fill="#47208A"/>
<path d="M276.241 183.3C277.877 181.364 276.941 177.916 274.15 175.6C271.36 173.283 267.771 172.974 266.134 174.91C264.498 176.847 265.434 180.294 268.225 182.611C271.016 184.927 274.604 185.236 276.241 183.3Z" fill="white"/>
<path d="M251.007 238.261C267.489 238.261 280.85 231.295 280.85 222.701C280.85 214.108 267.489 207.142 251.007 207.142C234.525 207.142 221.164 214.108 221.164 222.701C221.164 231.295 234.525 238.261 251.007 238.261Z" fill="#9F96F9"/>
<path d="M351.561 236.064H296.49V242.418C296.49 248.634 303.122 253.662 311.292 253.662H391.811C399.981 253.662 406.613 248.634 406.613 242.418V236.064H351.541H351.561Z" fill="#6A33D2"/>
<path d="M351.561 271.3H303.441V277.655C303.441 283.871 309.234 288.899 316.385 288.899H386.737C393.889 288.899 399.681 283.871 399.681 277.655V271.3H351.561Z" fill="#6A33D2"/>
<path d="M351.561 306.517H311.471V312.871C311.471 319.087 316.305 324.115 322.258 324.115H380.885C386.837 324.115 391.671 319.087 391.671 312.871V306.517H351.581H351.561Z" fill="#6A33D2"/>
<path fill-rule="evenodd" clip-rule="evenodd" d="M1295.1 166.297C1309.01 166.297 1322.03 170.085 1333.2 176.685L1304.77 214.218C1301.28 212.633 1297.43 211.702 1293.38 211.581C1277.38 212.061 1264.55 225.188 1264.55 241.31L1264.55 333.659H1216.66L1216.66 241.31C1216.66 199.882 1250.25 166.297 1291.67 166.297C1292.25 166.297 1292.82 166.304 1293.39 166.317C1293.95 166.304 1294.52 166.297 1295.1 166.297ZM1068.07 323.221C1081.61 330.209 1097 333.703 1114.25 333.703C1127.58 333.703 1139.8 331.41 1150.94 326.824C1162.08 322.238 1171.58 315.359 1179.44 306.187L1151.92 278.672C1147.12 284.131 1141.55 288.28 1135.22 291.119C1128.89 293.74 1121.79 295.05 1113.93 295.05C1105.41 295.05 1097.98 293.303 1091.65 289.809C1085.54 286.096 1080.73 280.964 1077.24 274.413C1076.14 272.14 1075.22 269.72 1074.49 267.151L1188.61 266.879C1189.49 262.73 1190.03 259.127 1190.25 256.069C1190.69 252.794 1190.9 249.736 1190.9 246.897C1190.9 231.393 1187.41 217.635 1180.42 205.624C1173.65 193.613 1164.26 184.223 1152.25 177.453C1140.24 170.683 1126.37 167.299 1110.65 167.299C1094.49 167.299 1079.97 170.902 1067.08 178.108C1054.2 185.315 1043.94 195.251 1036.29 207.917C1028.87 220.364 1025.16 234.559 1025.16 250.501C1025.16 266.442 1028.98 280.746 1036.62 293.412C1044.26 306.078 1054.75 316.014 1068.07 323.221ZM1074.51 232.747C1075.17 230.449 1075.97 228.287 1076.91 226.261C1080.19 219.709 1084.66 214.687 1090.34 211.193C1096.24 207.48 1103.12 205.624 1110.98 205.624C1118.4 205.624 1124.63 207.262 1129.65 210.537C1134.89 213.595 1138.82 218.181 1141.44 224.295C1142.54 226.761 1143.42 229.512 1144.1 232.55L1074.51 232.747ZM1420.37 333.703C1403.99 333.703 1389.14 330.1 1375.82 322.893C1362.72 315.468 1352.35 305.423 1344.7 292.757C1337.06 280.091 1333.24 265.896 1333.24 250.173C1333.24 234.45 1337.06 220.364 1344.7 207.917C1352.35 195.469 1362.72 185.642 1375.82 178.436C1388.92 171.011 1403.77 167.299 1420.37 167.299C1436.97 167.299 1451.82 170.902 1464.92 178.108C1478.02 185.315 1488.39 195.251 1496.04 207.917C1503.68 220.364 1507.5 234.45 1507.5 250.173C1507.5 265.896 1503.68 280.091 1496.04 292.757C1488.39 305.423 1478.02 315.468 1464.92 322.893C1451.82 330.1 1436.97 333.703 1420.37 333.703ZM1420.37 288.171C1427.58 288.171 1433.91 286.642 1439.37 283.585C1444.83 280.309 1448.98 275.833 1451.82 270.155C1454.87 264.259 1456.4 257.598 1456.4 250.173C1456.4 242.748 1454.87 236.306 1451.82 230.847C1448.76 225.169 1444.5 220.801 1439.04 217.744C1433.8 214.468 1427.58 212.83 1420.37 212.83C1413.38 212.83 1407.16 214.468 1401.7 217.744C1396.24 220.801 1391.98 225.169 1388.92 230.847C1385.87 236.524 1384.34 243.076 1384.34 250.501C1384.34 257.707 1385.87 264.259 1388.92 270.155C1391.98 275.833 1396.24 280.309 1401.7 283.585C1407.16 286.642 1413.38 288.171 1420.37 288.171ZM1609.11 333.703C1592.73 333.703 1577.88 330.1 1564.56 322.893C1551.45 315.468 1541.08 305.423 1533.44 292.757C1525.79 280.091 1521.97 265.896 1521.97 250.173C1521.97 234.45 1525.79 220.364 1533.44 207.917C1541.08 195.469 1551.45 185.642 1564.56 178.436C1577.66 171.011 1592.51 167.299 1609.11 167.299C1625.7 167.299 1640.55 170.902 1653.65 178.108C1666.76 185.315 1677.13 195.251 1684.77 207.917C1692.42 220.364 1696.24 234.45 1696.24 250.173C1696.24 265.896 1692.42 280.091 1684.77 292.757C1677.13 305.423 1666.76 315.468 1653.65 322.893C1640.55 330.1 1625.7 333.703 1609.11 333.703ZM1609.11 288.171C1616.31 288.171 1622.64 286.642 1628.1 283.585C1633.56 280.309 1637.71 275.833 1640.55 270.155C1643.61 264.259 1645.14 257.598 1645.14 250.173C1645.14 242.748 1643.61 236.306 1640.55 230.847C1637.49 225.169 1633.24 220.801 1627.78 217.744C1622.54 214.468 1616.31 212.83 1609.11 212.83C1602.12 212.83 1595.89 214.468 1590.43 217.744C1584.97 220.801 1580.72 225.169 1577.66 230.847C1574.6 236.524 1573.07 243.076 1573.07 250.501C1573.07 257.707 1574.6 264.259 1577.66 270.155C1580.72 275.833 1584.97 280.309 1590.43 283.585C1595.89 286.642 1602.12 288.171 1609.11 288.171ZM926.832 168.253C927.401 168.24 927.971 168.234 928.542 168.234C969.97 168.234 1003.55 201.818 1003.55 243.247L1003.55 243.418V333.389H955.666V243.247C955.666 227.124 942.837 213.997 926.83 213.518C910.825 213.998 897.997 227.124 897.997 243.247V333.389H848.291L848.291 243.247C848.291 227.124 835.462 213.997 819.456 213.518C803.451 213.997 790.622 227.124 790.622 243.247V333.389H742.734V243.247C742.734 201.818 776.318 168.234 817.746 168.234C818.318 168.234 818.889 168.24 819.458 168.253C820.026 168.24 820.596 168.234 821.167 168.234C841.344 168.234 859.663 176.202 873.144 189.16C886.625 176.202 904.943 168.234 925.12 168.234C925.693 168.234 926.263 168.24 926.832 168.253Z" fill="white"/>
</svg>
